<?xml version="1.0" encoding="UTF-8" standalone="no"?>
<!-- Created with Inkscape (http://www.inkscape.org/) -->

<svg
   xmlns:dc="http://purl.org/dc/elements/1.1/"
   xmlns:cc="http://creativecommons.org/ns#"
   xmlns:rdf="http://www.w3.org/1999/02/22-rdf-syntax-ns#"
   xmlns:svg="http://www.w3.org/2000/svg"
   xmlns="http://www.w3.org/2000/svg"
   xmlns:sodipodi="http://sodipodi.sourceforge.net/DTD/sodipodi-0.dtd"
   xmlns:inkscape="http://www.inkscape.org/namespaces/inkscape"
   width="422.5773mm"
   height="473.33337mm"
   viewBox="0 0 422.5773 473.33337"
   version="1.1"
   id="svg8"
   inkscape:version="0.92.3 (2405546, 2018-03-11)"
   sodipodi:docname="mindgit.svg">
  <defs
     id="defs2" />
  <sodipodi:namedview
     id="base"
     pagecolor="#ffffff"
     bordercolor="#666666"
     borderopacity="1.0"
     inkscape:pageopacity="0.0"
     inkscape:pageshadow="2"
     inkscape:zoom="0.24748737"
     inkscape:cx="723.39102"
     inkscape:cy="624.59728"
     inkscape:document-units="mm"
     inkscape:current-layer="layer1"
     showgrid="false"
     showborder="false"
     inkscape:window-width="1920"
     inkscape:window-height="996"
     inkscape:window-x="0"
     inkscape:window-y="28"
     inkscape:window-maximized="1" />
  <metadata
     id="metadata5">
    <rdf:RDF>
      <cc:Work
         rdf:about="">
        <dc:format>image/svg+xml</dc:format>
        <dc:type
           rdf:resource="http://purl.org/dc/dcmitype/StillImage" />
        <dc:title></dc:title>
      </cc:Work>
    </rdf:RDF>
  </metadata>
  <g
     inkscape:label="Calque 1"
     inkscape:groupmode="layer"
     id="layer1"
     transform="translate(388.81296,120.99726)">
    <g
       id="g187">
      <path
         id="path10"
         transform="scale(0.26458333)"
         d="m -869.12695,-457.3125 a 94.488189,94.488189 0 0 0 -94.48828,94.48828 94.488189,94.488189 0 0 0 64.22851,89.41602 v 139.35742 a 798.57143,478.57138 0 0 1 56.69336,-8.67578 v -129.4375 a 94.488189,94.488189 0 0 0 68.05469,-90.66016 94.488189,94.488189 0 0 0 -94.48828,-94.48828 z m 26.43359,314.58594 v 89.253904 a 94.488189,94.488189 0 0 1 68.05469,90.648437 94.488189,94.488189 0 0 1 -13.85547,49.033203 l 270.3125,270.312496 a 94.488189,94.488189 0 0 1 49.05469,-13.83398 94.488189,94.488189 0 0 1 94.48828,94.48828 94.488189,94.488189 0 0 1 -68.05664,90.66016 v 218.6914 a 94.488189,94.488189 0 0 1 68.05664,90.64844 94.488189,94.488189 0 0 1 -94.48828,94.48828 94.488189,94.488189 0 0 1 -38.49024,-8.27734 l -54.70312,54.70312 a 469.99994,204.28573 63.888066 0 1 65.98242,181.00586 287.14284,505.71424 81.248093 0 1 195.53516,-94.4375 608.57133,234.28571 81.248093 0 1 -43.07227,-134.16601 375.7143,238.57143 0 0 0 30.06055,0.95508 A 375.7143,238.57143 0 0 0 61.898438,692.875 375.7143,238.57143 0 0 0 10.332031,572.82422 798.57143,478.57138 0 0 0 127.61328,324.30469 a 798.57143,478.57138 0 0 0 -798.57226,-478.57227 798.57143,478.57138 0 0 0 -171.73438,11.54102 z m 280.37305,1120.8164 a 469.99994,204.28573 63.888066 0 0 -5.60352,-12.13281 469.99994,204.28573 63.888066 0 0 -21.45117,-40.98828 l -231.24805,231.24805 a 94.488189,94.488189 0 0 0 -22.07031,-9.6875 V 791.06836 a 798.57143,478.57138 0 0 1 -56.69336,-8.58203 v 365.30077 a 94.488189,94.488189 0 0 0 -64.22851,89.3887 94.488189,94.488189 0 0 0 94.48828,94.4883 94.488189,94.488189 0 0 0 94.48828,-94.4883 94.488189,94.488189 0 0 0 -8.31055,-38.457 z M -899.38672,782.48633 V 126.58984 a 94.488189,94.488189 0 0 1 -64.22851,-89.414059 94.488189,94.488189 0 0 1 64.22851,-89.388672 v -81.837889 a 798.57143,478.57138 0 0 0 -570.14258,458.35547 798.57143,478.57138 0 0 0 570.14258,458.18164 z m 56.69336,8.58203 a 798.57143,478.57138 0 0 0 171.73438,11.80664 798.57143,478.57138 0 0 0 3.18945,-0.0684 469.99994,204.28573 63.888066 0 1 78.39453,122.16211 l 39.28125,-39.28125 a 94.488189,94.488189 0 0 1 -13.52148,-48.51172 94.488189,94.488189 0 0 1 64.22656,-89.38867 V 526.58984 a 94.488189,94.488189 0 0 1 -64.22656,-89.41406 94.488189,94.488189 0 0 1 7.99804,-37.91406 L -831.25977,123.61914 a 94.488189,94.488189 0 0 1 -11.43359,4.2168 z"
         style="fill:#000000;stroke-width:0.93475306"
         inkscape:connector-curvature="0" />
    </g>
  </g>
</svg>
